<svg xmlns="http://www.w3.org/2000/svg" viewBox="0 0 579.3 532"><defs><style>.cls-1{fill:#8b7e3c;}.cls-2{fill:#b9a551;}.cls-3{fill:#b09d4d;}.cls-4{fill:#a69547;}.cls-5{fill:#b2a04e;}.cls-6{fill:#a59447;}.cls-7{fill:#b7a451;}.cls-8{fill:#b3a04f;}.cls-9{fill:#9b8c42;}.cls-10{fill:#90734f;}.cls-11{fill:#cbb459;}.cls-12{fill:#c3ae56;}.cls-13{fill:#c4b057;}.cls-14{fill:#b18c62;}.cls-15{fill:#dbc261;}.cls-16{fill:#c59c6d;}.cls-17{fill:#f1eed8;}.cls-18,.cls-22,.cls-23,.cls-25,.cls-26,.cls-27,.cls-28{fill:none;stroke-miterlimit:10;}.cls-18{stroke:#90734f;}.cls-19{fill:#818181;}.cls-20{fill:#ccc;}.cls-21{fill:#b68459;}.cls-22,.cls-23{stroke:#b68459;}.cls-23{stroke-width:0.85px;}.cls-24{fill:#9c7c55;}.cls-25,.cls-26,.cls-27,.cls-28{stroke:#4e4e4e;}.cls-25{stroke-width:0.91px;}.cls-26{stroke-width:1.82px;}.cls-27{stroke-width:2.72px;}.cls-28{stroke-width:0.45px;}</style></defs><title>Asset 1</title><g id="Layer_2" data-name="Layer 2"><g id="Layer_1-2" data-name="Layer 1"><polygon class="cls-1" points="64.08 471 66.2 484.99 155.85 477.99 126.9 471 64.08 471"/><polygon class="cls-2" points="1.3 416.34 6.35 414.8 23.64 420.9 8.48 431.73 1.3 416.34"/><polygon class="cls-2" points="54.5 437.78 70.46 435.08 77.91 439.97 73.65 444.98 61.42 449.38 54.5 437.78"/><polygon class="cls-2" points="426.91 431.73 427.97 439.18 138.56 475 141.22 465.25 426.91 431.73"/><polygon class="cls-2" points="578.65 410.71 578.65 421.35 535.5 424.58 532.2 416.32 578.65 410.71"/><polygon class="cls-3" points="129.65 507.53 129.65 514.98 151.99 523.89 578.65 449.01 578.65 444.75 560.77 443.96 156.08 513.78 129.65 507.53"/><polygon class="cls-4" points="147.72 435.08 167.21 441.31 18.83 459.12 3.16 451.6 147.72 435.08"/><polygon class="cls-2" points="138.65 450.22 18.37 465.25 17.33 457.23 138.65 442.78 138.65 450.22"/><polygon class="cls-5" points="47.65 416.34 18.65 419.07 18.65 457.23 47.65 453.83 47.65 416.34"/><polygon class="cls-6" points="363.51 442.26 339.84 436.63 55.03 474.29 72.71 482.68 363.51 442.26"/><polygon class="cls-7" points="117.65 439.18 73.65 444.17 73.65 482.68 117.65 476.63 117.65 439.18"/><polygon class="cls-8" points="476.65 436.78 73.65 495.83 73.65 482.99 476.65 426.88 476.65 436.78"/><polygon class="cls-9" points="0 405.87 367.85 367.79 579.3 403.31 147.72 459.7 0 405.87"/><polygon class="cls-10" points="472.26 55.94 152.14 0.06 4.65 71.4 4.65 404.83 152.06 457.23 574.65 401.19 574.65 73.38 472.26 55.94"/><polygon class="cls-11" points="134.96 507.02 146.81 517.89 578.22 444.88 552.07 439.97 134.96 507.02"/><polygon class="cls-12" points="345.65 437.78 367.65 442.82 367.65 480.45 345.65 474.36 345.65 437.78"/><polygon class="cls-12" points="519.65 414.8 542.65 418.73 542.65 450.22 519.65 445.5 519.65 414.8"/><polygon class="cls-13" points="0.65 415.16 147.65 472.49 147.65 459.7 0.65 405.87 0.65 415.16"/><polygon class="cls-14" points="4.65 404.83 63.65 426.38 63.65 235.58 4.65 239.4 4.65 404.83"/><polygon class="cls-14" points="66.65 426.75 152.65 457.23 152.65 229.79 66.65 235.02 66.65 426.75"/><polygon class="cls-14" points="4.65 71.4 63.65 42.51 63.65 232.68 4.65 236.67 4.65 71.4"/><polygon class="cls-14" points="152.65 0 66.65 40.78 66.65 232.4 152.65 226.86 152.65 0"/><polygon class="cls-15" points="542.65 450.22 578.65 443.75 578.65 413.23 542.65 418.66 542.65 450.22"/><polygon class="cls-15" points="578.65 412.27 147.65 472.26 147.65 459.7 578.65 403.31 578.65 412.27"/><polygon class="cls-16" points="394.65 424.93 152.65 457.23 152.65 229.79 394.65 235.76 394.65 424.93"/><polygon class="cls-16" points="394.65 234.05 152.65 226.86 152.65 0 394.65 42.73 394.65 234.05"/><polygon class="cls-16" points="574.65 239.2 398.65 234.33 398.65 42.77 574.65 73.85 574.65 239.2"/><polygon class="cls-16" points="574.65 401.19 398.65 424.58 398.65 236.12 574.65 241.01 574.65 401.19"/><polygon class="cls-15" points="578.65 454.04 147.65 532 147.65 519.44 578.65 445.08 578.65 454.04"/><polygon class="cls-15" points="367.65 480.45 424.65 470.92 424.65 435.08 367.65 442.97 367.65 480.45"/><polygon class="cls-15" points="212.65 507.13 147.65 518.3 147.65 473.7 212.65 464.47 212.65 507.13"/><polygon class="cls-12" points="129.65 509.93 147.65 518.3 147.65 473.7 129.65 466.81 129.65 509.93"/><polygon class="cls-11" points="129.65 522.81 147.65 531.91 147.65 519.44 129.65 510.78 129.65 522.81"/><polygon class="cls-11" points="54.65 486 73.65 495.83 73.65 482.99 54.65 474.5 54.65 486"/><polygon class="cls-11" points="1.65 456.98 18.65 465.25 18.65 457.31 1.65 449.38 1.65 456.98"/><polygon class="cls-12" points="73.65 482.68 54.65 474.29 54.65 437.78 73.65 444.98 73.65 482.68"/><polygon class="cls-12" points="18.65 457.44 1.65 449.22 1.65 416.34 18.65 423.11 18.65 457.44"/><polygon class="cls-17" points="294.65 101.29 166.65 85.85 166.65 39.9 294.65 59.35 294.65 101.29"/><polygon class="cls-17" points="496.65 125.31 405.65 114.27 405.65 75.68 496.65 89.59 496.65 125.31"/><polygon class="cls-17" points="294.65 311.02 165.65 315.6 165.65 269.65 294.65 269.08 294.65 311.02"/><polygon class="cls-17" points="496.65 303.93 405.65 307.18 405.65 269.08 496.65 268.64 496.65 303.93"/><polygon class="cls-18" points="212.15 224.69 164.15 223.5 164.15 176.03 212.15 178.73 212.15 224.69"/><polygon class="cls-18" points="261.15 225.92 217.15 224.81 217.15 179 261.15 181.52 261.15 225.92"/><polygon class="cls-18" points="306.15 227.06 266.15 226.02 266.15 181.75 306.15 184.1 306.15 227.06"/><polygon class="cls-18" points="438.15 231.45 405.15 230.6 405.15 190.78 438.15 192.7 438.15 231.45"/><polygon class="cls-18" points="473.15 232.31 441.15 231.52 441.15 192.86 473.15 194.66 473.15 232.31"/><polygon class="cls-18" points="506.15 233.13 475.15 232.38 475.15 194.81 506.15 196.51 506.15 233.13"/><polygon class="cls-18" points="212.15 445.27 164.15 451.33 164.15 403.86 212.15 399.31 212.15 445.27"/><polygon class="cls-18" points="261.15 439.03 217.15 444.73 217.15 398.92 261.15 394.63 261.15 439.03"/><polygon class="cls-18" points="306.15 433.36 266.15 438.48 266.15 394.2 306.15 390.41 306.15 433.36"/><polygon class="cls-18" points="438.15 416.69 405.15 420.9 405.15 381.08 438.15 377.94 438.15 416.69"/><polygon class="cls-18" points="473.15 412.28 441.15 416.32 441.15 377.66 473.15 374.63 473.15 412.28"/><polygon class="cls-18" points="506.15 408.05 475.15 411.92 475.15 374.36 506.15 371.45 506.15 408.05"/><polygon class="cls-19" points="290.75 70.47 224.76 61.58 224.76 57.52 290.75 66.59 290.75 70.47"/><polygon class="cls-20" points="288.9 76.52 224.76 68.17 224.76 64.11 288.9 72.64 288.9 76.52"/><polygon class="cls-20" points="291.42 83.14 224.76 74.75 224.76 70.7 291.42 79.27 291.42 83.14"/><polygon class="cls-20" points="274.67 87.4 224.76 81.34 224.76 77.29 274.67 83.48 274.67 87.4"/><polygon class="cls-19" points="290.75 283.06 224.76 284.05 224.76 280 290.75 279.19 290.75 283.06"/><polygon class="cls-20" points="288.9 289.39 224.76 290.64 224.76 286.58 288.9 285.51 288.9 289.39"/><polygon class="cls-20" points="291.42 295.64 224.76 297.23 224.76 293.17 291.42 291.76 291.42 295.64"/><polygon class="cls-20" points="274.67 302.4 224.76 303.82 224.76 299.76 274.67 298.49 274.67 302.4"/><polygon class="cls-19" points="487.02 98.28 448.37 93.12 448.37 89.67 487.02 94.94 487.02 98.28"/><polygon class="cls-20" points="492.54 104.42 448.37 98.71 448.37 95.27 492.54 101.09 492.54 104.42"/><polygon class="cls-20" points="491.81 109.73 448.37 104.31 448.37 101.19 491.81 106.71 491.81 109.73"/><polygon class="cls-20" points="482.68 114.03 448.37 109.91 448.37 106.46 482.68 110.68 482.68 114.03"/><polygon class="cls-19" points="487.02 280.56 448.37 281.15 448.37 277.71 487.02 277.22 487.02 280.56"/><polygon class="cls-20" points="492.54 285.88 448.37 286.75 448.37 283.31 492.54 282.55 492.54 285.88"/><polygon class="cls-20" points="491.81 291.3 448.37 292.35 448.37 289.23 491.81 288.28 491.81 291.3"/><polygon class="cls-20" points="482.68 296.96 448.37 297.95 448.37 294.5 482.68 293.61 482.68 296.96"/><path class="cls-21" d="M285.88,193.4c-6.07-.29-11,4.14-11,11l21.9.87C296.75,198.52,291.9,193.69,285.88,193.4Z"/><path class="cls-21" d="M283.66,217.83c-1.72-.05-2.61-1.78-2.85-2.8l1.8-.41s.81,1.24,1.49,1.27a1.54,1.54,0,0,0,1.55-.94v-8.2l1,.07V215A2.8,2.8,0,0,1,283.66,217.83Z"/><path class="cls-21" d="M286.63,191.86s-.35-.75-.75-.77-.72.69-.75.69Z"/><path class="cls-21" d="M490.32,203.2c-4.45-.21-8.09,3.61-8.09,9.48l16.07.64C498.31,207.53,494.74,203.42,490.32,203.2Z"/><path class="cls-21" d="M488.58,224.14c-1.26,0-1.85-1.52-2-2.39l1.35-.36s.36,1.06.85,1.08a.85.85,0,0,0,.9-.81v-7l1,.06v7A2.16,2.16,0,0,1,488.58,224.14Z"/><path class="cls-21" d="M490.88,201.88s-.26-.64-.55-.65-.53.6-.55.6Z"/><path class="cls-21" d="M490.32,381.93c-4.45.44-8.09,4.79-8.09,10.66l16.07-1.71C498.31,385.09,494.74,381.5,490.32,381.93Z"/><path class="cls-21" d="M488.58,403.12c-1.26.15-1.85-1.24-2-2.08l1.35-.56s.36,1,.85,1a1,1,0,0,0,.9-.94v-7l1-.1v7A2.57,2.57,0,0,1,488.58,403.12Z"/><path class="cls-21" d="M490.88,380.53s-.26-.6-.55-.57-.53.68-.55.68Z"/><path class="cls-21" d="M286.51,402a12.39,12.39,0,0,0-11,12.61l21.88-2.33C297.37,405.53,292.53,401.41,286.51,402Z"/><path class="cls-21" d="M284.48,426.76c-1.72.2-2.7-1.41-2.94-2.39l1.76-.68s.47,1.17,1.14,1.09a1.27,1.27,0,0,0,1.21-1.12v-8.2l2-.14v8.22A3.52,3.52,0,0,1,284.48,426.76Z"/><path class="cls-21" d="M287.27,400.35s-.35-.69-.75-.66-.72.8-.75.8Z"/><path class="cls-21" d="M222.65,188v7.5a7.23,7.23,0,0,0,6.52,7.25,6.54,6.54,0,0,0,6.48-6.72v-7.44Z"/><path class="cls-21" d="M229.08,216.75l-5.52.76a.12.12,0,0,0,0,.24l11,.33a.12.12,0,0,0,0-.24l-5.47-1.08Z"/><line class="cls-22" x1="229.1" y1="201.12" x2="229.1" y2="217.33"/><path class="cls-22" d="M239.15,189.35v6.91a7.26,7.26,0,0,0,6.53,7.19,6.53,6.53,0,0,0,6.47-6.62V190Z"/><path class="cls-21" d="M245.65,217.29l-5.38.75a.12.12,0,0,0,0,.24l10.72.32a.12.12,0,0,0,0-.24l-5.34-1.07Z"/><line class="cls-22" x1="245.65" y1="203.46" x2="245.65" y2="217.87"/><path class="cls-21" d="M446.65,199.08v6.37c0,3.29,2,6,4.51,6.13s4.49-2.48,4.49-5.75v-6.33Z"/><path class="cls-21" d="M451.3,223.49l-4,.66a.11.11,0,0,0,0,.21l7.94.23c.11,0,.12-.18,0-.21l-4-.9Z"/><line class="cls-22" x1="451.31" y1="210.21" x2="451.31" y2="223.99"/><path class="cls-22" d="M459.15,200.13V206c0,3.26,2.59,6,5,6.08s5-2.44,5-5.67v-5.84Z"/><path class="cls-21" d="M464.38,223.89l-3.9.66c-.11,0-.09.2,0,.21l7.78.23c.11,0,.12-.18,0-.2l-3.88-.89Z"/><line class="cls-22" x1="464.39" y1="212.1" x2="464.39" y2="224.38"/><path class="cls-21" d="M446.65,384.54v6.37c0,3.29,2,5.77,4.51,5.5s4.49-3.1,4.49-6.37v-6.33Z"/><path class="cls-21" d="M451.3,408.34l-4,1.25c-.11,0-.09.22,0,.21l7.94-.93c.11,0,.12-.2,0-.21l-4-.32Z"/><line class="cls-23" x1="451.31" y1="395.06" x2="451.31" y2="408.83"/><path class="cls-22" d="M459.15,383.8v5.88c0,3.26,2.59,5.64,5,5.38s5-3.14,5-6.37v-5.84Z"/><path class="cls-21" d="M464.38,406.82l-3.9,1.23c-.11,0-.09.22,0,.2l7.78-.91c.11,0,.12-.2,0-.21l-3.88-.32Z"/><line class="cls-23" x1="464.39" y1="395.03" x2="464.39" y2="407.3"/><path class="cls-21" d="M223.65,407v7.5c0,3.87,2.6,6.75,6,6.38s6-3.74,6-7.58v-7.44Z"/><path class="cls-21" d="M229.74,434.9l-5.51,1.57c-.15,0-.13.26,0,.24l11-1.29c.15,0,.17-.24,0-.24l-5.47-.28Z"/><line class="cls-23" x1="229.76" y1="419.28" x2="229.76" y2="435.48"/><path class="cls-22" d="M241.15,405.88v6.91a6.07,6.07,0,0,0,6.53,6.21c3.32-.36,6.47-3.79,6.47-7.58v-6.85Z"/><path class="cls-21" d="M247.8,432.79l-5.38,1.54c-.14,0-.13.26,0,.24l10.71-1.26c.14,0,.16-.23,0-.24l-5.34-.28Z"/><line class="cls-23" x1="247.82" y1="418.96" x2="247.82" y2="433.36"/><path class="cls-21" d="M176.53,196.36l2.34,2.37a8.58,8.58,0,0,1,9.11-7.81,9.54,9.54,0,0,1,8.79,7.21l2.26,2.31,2.51-2.37A14.54,14.54,0,0,0,188,186.24a13.09,13.09,0,0,0-14,12.47Z"/><path class="cls-21" d="M199,203.87l-2.15-2.2a8.6,8.6,0,0,1-8.9,7,9.58,9.58,0,0,1-8.45-5.82l-3-3L174.25,202A14.55,14.55,0,0,0,188,213.37a13.1,13.1,0,0,0,13.71-12Z"/><path class="cls-21" d="M413.31,207.87l1.67,2c.27-3.88,3.1-6.82,6.52-6.67,3.07.14,5.63,2.72,6.31,6.05l1.62,1.95,1.8-2c-.79-5.4-4.84-9.7-9.73-9.94-5.38-.26-9.81,4.48-10,10.65Z"/><path class="cls-21" d="M429.43,214.1l-1.54-1.85c-.53,3.5-3.18,6.1-6.38,6a6.93,6.93,0,0,1-6.05-4.88l-2.15-2.55-1.63,1.8c.93,5.32,5,9.44,9.83,9.59,5.22.16,9.47-4.38,9.84-10.26Z"/><path class="cls-21" d="M413.31,397.31l1.67,1.75c.27-3.92,3.1-7.28,6.52-7.62,3.07-.31,5.63,1.9,6.31,5.13l1.62,1.71,1.8-2.28c-.79-5.29-4.84-9-9.73-8.52-5.38.52-9.81,5.91-10,12.11Z"/><path class="cls-21" d="M429.43,401.19l-1.54-1.62c-.53,3.58-3.18,6.57-6.38,6.93a5.78,5.78,0,0,1-6.05-4l-2.15-2.24-1.63,2c.93,5.18,5,8.71,9.83,8.15,5.22-.6,9.47-5.76,9.84-11.7Z"/><path class="cls-21" d="M177.92,421.9l2.34,2a10.29,10.29,0,0,1,9.09-9.14,8,8,0,0,1,8.77,5.92l2.25,2,2.5-2.73c-1.1-6.21-6.72-10.5-13.53-9.84a15.67,15.67,0,0,0-14,14.52Z"/><path class="cls-21" d="M200.38,426.11l-2.14-1.88a10.35,10.35,0,0,1-8.88,8.32,8,8,0,0,1-8.43-4.58l-3-2.59-2.27,2.45c1.3,6.1,7,10.17,13.7,9.39a15.72,15.72,0,0,0,13.69-14Z"/><polygon class="cls-24" points="93.65 59.35 112.65 51.49 112.65 19.08 93.65 28.15 93.65 59.35"/><polygon class="cls-24" points="25.65 87.68 39.65 81.9 39.65 54.19 25.65 60.85 25.65 87.68"/><polygon class="cls-24" points="93.65 264.54 112.65 264.73 112.65 232.32 93.65 233.35 93.65 264.54"/><polygon class="cls-24" points="25.65 264.85 39.65 264.91 39.65 237.19 25.65 238.02 25.65 264.85"/><line class="cls-25" x1="172.53" y1="47.26" x2="172.53" y2="77.72"/><line class="cls-26" x1="175.04" y1="47.61" x2="175.04" y2="78.02"/><line class="cls-25" x1="177.53" y1="47.95" x2="177.53" y2="78.31"/><line class="cls-27" x1="180.02" y1="48.3" x2="180.02" y2="78.61"/><line class="cls-28" x1="182.5" y1="48.65" x2="182.5" y2="78.91"/><line class="cls-26" x1="184.97" y1="48.99" x2="184.97" y2="79.2"/><line class="cls-25" x1="187.43" y1="49.33" x2="187.43" y2="79.5"/><line class="cls-26" x1="189.88" y1="49.68" x2="189.88" y2="79.79"/><line class="cls-28" x1="192.33" y1="50.02" x2="192.33" y2="80.08"/><line class="cls-25" x1="194.77" y1="50.36" x2="194.77" y2="80.38"/><line class="cls-25" x1="197.2" y1="50.7" x2="197.2" y2="80.67"/><line class="cls-25" x1="199.62" y1="51.03" x2="199.62" y2="80.96"/><line class="cls-26" x1="202.04" y1="51.37" x2="202.04" y2="81.25"/><line class="cls-25" x1="204.45" y1="51.71" x2="204.45" y2="81.53"/><line class="cls-25" x1="206.85" y1="52.04" x2="206.85" y2="81.82"/><line class="cls-25" x1="209.24" y1="52.37" x2="209.24" y2="82.11"/><line class="cls-27" x1="211.62" y1="52.71" x2="211.62" y2="82.39"/><line class="cls-25" x1="214" y1="53.04" x2="214" y2="82.68"/><line class="cls-25" x1="216.37" y1="53.37" x2="216.37" y2="82.96"/><line class="cls-25" x1="218.73" y1="53.7" x2="218.73" y2="83.24"/><line class="cls-25" x1="411.14" y1="82.13" x2="411.14" y2="107.87"/><line class="cls-26" x1="412.93" y1="82.38" x2="412.93" y2="108.08"/><line class="cls-25" x1="414.71" y1="82.63" x2="414.71" y2="108.29"/><line class="cls-27" x1="416.49" y1="82.87" x2="416.49" y2="108.5"/><line class="cls-28" x1="418.26" y1="83.12" x2="418.26" y2="108.71"/><line class="cls-26" x1="420.03" y1="83.36" x2="420.03" y2="108.92"/><line class="cls-25" x1="421.79" y1="83.6" x2="421.79" y2="109.13"/><line class="cls-26" x1="423.55" y1="83.85" x2="423.55" y2="109.34"/><line class="cls-28" x1="425.3" y1="84.09" x2="425.3" y2="109.54"/><line class="cls-25" x1="427.05" y1="84.33" x2="427.05" y2="109.75"/><line class="cls-25" x1="428.8" y1="84.57" x2="428.8" y2="109.96"/><line class="cls-25" x1="430.53" y1="84.81" x2="430.53" y2="110.16"/><line class="cls-26" x1="432.27" y1="85.05" x2="432.27" y2="110.37"/><line class="cls-25" x1="434" y1="85.29" x2="434" y2="110.57"/><line class="cls-25" x1="435.72" y1="85.53" x2="435.72" y2="110.78"/><line class="cls-25" x1="437.44" y1="85.77" x2="437.44" y2="110.98"/><line class="cls-27" x1="439.16" y1="86" x2="439.16" y2="111.18"/><line class="cls-25" x1="440.87" y1="86.24" x2="440.87" y2="111.39"/><line class="cls-25" x1="442.58" y1="86.48" x2="442.58" y2="111.59"/><line class="cls-25" x1="444.28" y1="86.71" x2="444.28" y2="111.79"/><line class="cls-25" x1="411.14" y1="275.07" x2="411.14" y2="300.8"/><line class="cls-26" x1="412.93" y1="275.05" x2="412.93" y2="300.75"/><line class="cls-25" x1="414.71" y1="275.03" x2="414.71" y2="300.69"/><line class="cls-27" x1="416.49" y1="275.01" x2="416.49" y2="300.64"/><line class="cls-28" x1="418.26" y1="274.99" x2="418.26" y2="300.59"/><line class="cls-26" x1="420.03" y1="274.97" x2="420.03" y2="300.53"/><line class="cls-25" x1="421.79" y1="274.96" x2="421.79" y2="300.48"/><line class="cls-26" x1="423.55" y1="274.94" x2="423.55" y2="300.43"/><line class="cls-28" x1="425.3" y1="274.92" x2="425.3" y2="300.38"/><line class="cls-25" x1="427.05" y1="274.9" x2="427.05" y2="300.32"/><line class="cls-25" x1="428.8" y1="274.88" x2="428.8" y2="300.27"/><line class="cls-25" x1="430.53" y1="274.87" x2="430.53" y2="300.22"/><line class="cls-26" x1="432.27" y1="274.85" x2="432.27" y2="300.17"/><line class="cls-25" x1="434" y1="274.83" x2="434" y2="300.11"/><line class="cls-25" x1="435.72" y1="274.81" x2="435.72" y2="300.06"/><line class="cls-25" x1="437.44" y1="274.8" x2="437.44" y2="300.01"/><line class="cls-27" x1="439.16" y1="274.78" x2="439.16" y2="299.96"/><line class="cls-25" x1="440.87" y1="274.76" x2="440.87" y2="299.91"/><line class="cls-25" x1="442.58" y1="274.74" x2="442.58" y2="299.86"/><line class="cls-25" x1="444.28" y1="274.73" x2="444.28" y2="299.81"/><line class="cls-25" x1="172.53" y1="277.51" x2="172.53" y2="307.97"/><line class="cls-26" x1="175.03" y1="277.48" x2="175.03" y2="307.89"/><line class="cls-25" x1="177.53" y1="277.46" x2="177.53" y2="307.82"/><line class="cls-27" x1="180.01" y1="277.43" x2="180.01" y2="307.75"/><line class="cls-28" x1="182.49" y1="277.41" x2="182.49" y2="307.67"/><line class="cls-26" x1="184.96" y1="277.38" x2="184.96" y2="307.6"/><line class="cls-25" x1="187.43" y1="277.36" x2="187.43" y2="307.52"/><line class="cls-26" x1="189.88" y1="277.33" x2="189.88" y2="307.45"/><line class="cls-28" x1="192.33" y1="277.31" x2="192.33" y2="307.38"/><line class="cls-25" x1="194.77" y1="277.28" x2="194.77" y2="307.3"/><line class="cls-25" x1="197.2" y1="277.26" x2="197.2" y2="307.23"/><line class="cls-25" x1="199.62" y1="277.23" x2="199.62" y2="307.16"/><line class="cls-26" x1="202.04" y1="277.21" x2="202.04" y2="307.08"/><line class="cls-25" x1="204.44" y1="277.18" x2="204.44" y2="307.01"/><line class="cls-25" x1="206.84" y1="277.16" x2="206.84" y2="306.94"/><line class="cls-25" x1="209.24" y1="277.13" x2="209.24" y2="306.87"/><line class="cls-27" x1="211.62" y1="277.11" x2="211.62" y2="306.8"/><line class="cls-25" x1="214" y1="277.09" x2="214" y2="306.72"/><line class="cls-25" x1="216.37" y1="277.06" x2="216.37" y2="306.65"/><line class="cls-25" x1="218.73" y1="277.04" x2="218.73" y2="306.58"/></g></g></svg>